<?xml version="1.0" encoding="UTF-8" standalone="no"?><!DOCTYPE svg PUBLIC "-//W3C//DTD SVG 1.1//EN" "http://www.w3.org/Graphics/SVG/1.1/DTD/svg11.dtd"><svg width="100%" height="100%" viewBox="0 0 2481 3508" version="1.1" xmlns="http://www.w3.org/2000/svg" xmlns:xlink="http://www.w3.org/1999/xlink" xml:space="preserve" xmlns:serif="http://www.serif.com/" style="fill-rule:evenodd;clip-rule:evenodd;stroke-linejoin:round;stroke-miterlimit:2;"><g><g><path d="M905.34,1087.407c1.528,0.591 1.493,3.287 3.021,3.878c4.307,1.665 67.236,-4.631 103.27,2.161c11.43,2.154 13.652,-4.208 35.42,3.307c1.325,0.457 1.499,-3.243 17.508,0.607c1.128,0.271 0.372,2.148 11.789,2.687c9.146,0.431 8.776,-3.654 9.043,-3.814c0.839,-0.502 2.07,0.874 2.909,0.372c145.833,30.148 265.097,92.226 374.649,242.335c13.948,30.133 76.641,97.736 103.795,235.903c22.037,112.131 5.787,204.148 3.318,223.93c-13.052,76.648 -35.482,127.472 -61.208,179.72c-2.956,5.47 -25.035,46.331 -39.007,67.226c-167.232,250.08 -398.577,258.811 -428.884,269.207c-5.879,0.073 -11.758,0.145 -17.637,0.218l-14.652,1.042c-1.571,-1.421 -1.485,-4.15 -3.056,-5.57c-1.449,-1.311 -69.624,-0.657 -70.731,-0.137c-0.471,0.221 1.764,1.333 -3.069,5.734c-1.237,1.127 -1.589,-1.492 -2.944,-0.258c-132.944,-8.783 -198.886,-48.963 -223.569,-55.418c-6.743,-1.764 -231.605,98.672 -245.63,105.999c-26.433,13.81 -50.071,-19.838 -52.645,-28.043c-6.885,-21.942 46.644,-155.363 71.511,-265.238c1.922,-8.493 -2.933,-7.017 -31.172,-49.417c-79.676,-119.631 -87.508,-225 -91.534,-263.005c0.07,-0.103 5.212,-0.37 4.046,-5.976c-0.578,-2.778 -0.658,-37.878 -0.666,-41.172c-0.143,-62.59 3.549,-62.746 1.751,-67.871c-0.648,-1.847 -3.798,-1.5 -5.041,-3.012c-0.624,-0.758 0.768,-2.184 0.145,-2.942c30.874,-320.657 289.537,-534.804 549.273,-552.45Z" style="fill:#1989e9;"/><path d="M1462.948,1338.942c5.816,-0.611 5.55,-0.148 11.478,-1.205c361.146,-64.362 722.017,259.425 637.671,703.187c-29.76,156.573 -103.602,231.064 -116.184,247.41c-3.492,4.536 -4.785,6.216 13.153,70.342c44.395,158.706 70.661,200.939 36.631,217.907c-19.432,9.689 -57.193,-6.045 -61.793,-7.962c-130.999,-55.971 -214.722,-90.65 -217.861,-91.881c-16.967,-6.647 -34.499,33.118 -176.7,57.621c-340.249,54.066 -540.111,-201.53 -548.38,-219.435c30.306,-10.396 261.652,-19.127 428.884,-269.207c13.973,-20.895 36.051,-61.755 39.007,-67.226c25.727,-52.248 48.157,-103.072 61.208,-179.72c2.47,-19.782 18.719,-111.799 -3.318,-223.93c-27.154,-138.167 -89.846,-205.77 -103.795,-235.903Z" style="fill:#f3437b;"/><path d="M1089.145,1421.498c-0.46,0.485 -5.75,6.062 -5.75,6.062c1.278,4.656 2.803,4.045 2.693,9.005c-0.031,1.415 -0.369,16.633 0.685,17.683c1.488,1.481 4.001,1.609 5.488,3.09c-17.103,141.75 -39.522,213.926 -9.988,214.16c164.183,1.301 168.896,-8.508 187.485,10.706c23.272,24.054 8.166,42.371 5.847,45.183c-15.91,19.292 -13.816,20.841 -192.07,246.598c-92.228,116.806 -101.042,133.992 -133.947,131.924c-7.334,-0.461 -37.265,-7.276 -32.494,-47.51c24.626,-207.693 31.213,-210.143 19.991,-223.354c-12.469,-14.68 -50.747,-3.741 -167.256,-6.082c-43.393,-0.872 -53.646,-36.754 -34.092,-61.361c14.731,-18.538 160.793,-202.347 182.905,-232.693c6.306,-8.654 7.86,-7.282 82.706,-105.238c7.233,-9.467 61.216,-70.894 87.796,-8.175Z" style="fill:#fec621;"/><path d="M905.34,1087.407c89.876,-6.653 141.906,2.444 182.959,9.199c-0.839,0.502 -2.07,-0.874 -2.909,-0.372c-0.266,0.16 0.103,4.245 -9.043,3.814c-11.417,-0.538 -10.661,-2.415 -11.789,-2.687c-16.009,-3.851 -16.183,-0.15 -17.508,-0.607c-21.768,-7.515 -23.99,-1.153 -35.42,-3.307c-36.034,-6.792 -98.963,-0.496 -103.27,-2.161c-1.528,-0.591 -1.493,-3.287 -3.021,-3.878Z" style="fill:#1aabef;"/><path d="M2045.329,2550.149c-2.759,-0.204 -5.49,1.114 -8.249,0.91c-1.012,-0.075 0.296,-2.113 -10.649,-6.893c-2.145,-0.937 -6.84,0.665 -8.41,-1.433c-3.401,-4.545 -5.317,-5.683 -0.774,-9.182c3.684,-2.837 3.949,-1.674 8.185,-3.071c10.595,-3.492 -10.062,-11.409 -2.576,-18.049c4.08,-3.619 12.003,10.509 14.202,5.698c0.645,-1.412 -0.363,-5.295 6.113,-4.968c2.954,0.149 -4.675,10.892 -2.277,16.208c2.19,4.854 1.534,4.974 4.399,9.393c1.43,2.206 0.697,2.224 0.036,11.387Z" style="fill:#f3437b;"/><path d="M356.067,1639.857c0.624,0.758 -0.768,2.184 -0.145,2.942c1.243,1.512 4.393,1.165 5.041,3.012c1.798,5.125 -1.894,5.281 -1.751,67.871c0.008,3.294 0.088,38.395 0.666,41.172c1.166,5.606 -3.976,5.873 -4.046,5.976c-3.855,-46.168 -4.217,-64.486 0.235,-120.974Z" style="fill:#1ba9f2;"/><path d="M928.872,2315.954c1.355,-1.234 1.707,1.385 2.944,0.258c4.833,-4.4 2.598,-5.513 3.069,-5.734c1.107,-0.52 69.282,-1.173 70.731,0.137c1.571,1.421 1.485,4.15 3.056,5.57c-21.148,1.42 -45.844,2.492 -79.8,-0.232Z" style="fill:#1c99e5;"/><path d="M880.58,1814.221c11.73,-10.249 25.938,0.507 33.737,-0.219c10.937,-1.018 10.76,-0.594 11.676,-0.789c10.099,7.04 5.022,9.336 4.201,9.426c-1.983,0.216 -1.507,-3.749 -24.784,-2.766c-4.989,0.211 -8.454,1.293 -8.496,1.273c-2.866,-1.422 -1.666,-4.356 -9.298,-3.851c-5.385,0.356 -4.481,-1.957 -7.037,-3.073Z" style="fill:#fdc625;"/><path d="M1089.145,1421.498c4.149,17.841 4.709,17.744 3.116,35.84c-1.488,-1.481 -4.001,-1.609 -5.488,-3.09c-1.054,-1.05 -0.717,-16.267 -0.685,-17.683c0.11,-4.961 -1.415,-4.349 -2.693,-9.005c0,0 5.29,-5.577 5.75,-6.062Z" style="fill:#facf0d;"/><path d="M1518.41,2518.072c1.934,-0.876 5.789,-2.622 26.442,-2.283c0.564,0.009 29.418,6.241 3.08,6.347c-7.431,0.03 -7.091,-1.391 -14.624,-0.757c-7.755,0.652 -7.175,-2.112 -14.897,-3.308Z" style="fill:#f2437b;"/><path d="M793.508,1797.355c5.555,0.84 6.659,0.955 8.094,-4.551c2.58,-9.902 12.829,10.372 3.872,10.654c-8.335,0.263 -11.07,1.988 -11.966,-6.104Z" style="fill:#ffc521;"/><path d="M1582.415,1775.287c0.781,-0.962 -1.61,-3.155 3.519,-4.334c1.019,-0.234 10.608,-2.438 12.3,4.421c2.654,10.761 -7.404,11.144 -8.858,2.913c-0.656,-3.717 -1.978,-2.266 -6.961,-3Z" style="fill:#f5427b;"/><path d="M1061.599,2220.477c-3.141,1.602 -5.191,3.444 -13.877,-0.935c-5.095,-2.568 -0.073,-11.142 5.007,-7.493c4.64,3.333 8.245,7.674 8.87,8.427Z" style="fill:#1a89e9;"/><path d="M412.796,2335.44c6.152,-4.964 6.056,-5.015 6.644,-5.361c2.714,-1.596 7.843,3.725 3.798,5.613c-3.86,1.802 -3.215,2.297 -5.571,5.643c-3.144,4.467 -2.189,-1.1 -4.872,-5.894Z" style="fill:#1a89ec;"/><path d="M949.403,1890.126c4.66,3.602 7.257,4.873 2.46,8.395c-16.051,11.785 -2.851,-7.814 -2.46,-8.395Z" style="fill:#fec629;"/><path d="M1541.333,1951.367c-0.527,-5.362 -2.724,-4.186 -2.639,-4.602c0.762,-3.714 8.68,-0.25 6.373,2.849c-0.821,1.103 -2.913,0.65 -3.734,1.753Z" style="fill:#f3437c;"/></g></g></svg>